<?xml version="1.0" encoding="iso-8859-1"?>
<!-- Generator: Adobe Illustrator 19.0.0, SVG Export Plug-In . SVG Version: 6.00 Build 0)  -->
<svg version="1.1" id="Capa_1" xmlns="http://www.w3.org/2000/svg" xmlns:xlink="http://www.w3.org/1999/xlink" x="0px" y="0px"
	 viewBox="0 0 512 512" style="enable-background:new 0 0 512 512;" xml:space="preserve">
<g>
	<g>
		<path d="M243.472,217.243c-34.022,0-61.702,27.679-61.702,61.701c0,34.03,27.679,61.716,61.702,61.716
			c34.026,0,61.708-27.686,61.708-61.716C305.181,244.922,277.499,217.243,243.472,217.243z M243.472,320.66
			c-22.995,0-41.702-18.713-41.702-41.716c0-22.994,18.707-41.701,41.702-41.701c22.998,0,41.708,18.707,41.708,41.701
			C285.181,301.946,266.471,320.66,243.472,320.66z"/>
	</g>
</g>
<g>
	<g>
		<path d="M78.799,348.43c-0.13-0.64-0.32-1.27-0.57-1.87c-0.25-0.61-0.56-1.19-0.92-1.73c-0.359-0.55-0.779-1.06-1.24-1.52
			c-0.46-0.46-0.97-0.88-1.52-1.24c-0.539-0.36-1.12-0.67-1.73-0.92c-0.599-0.25-1.229-0.44-1.869-0.57c-1.29-0.26-2.61-0.26-3.9,0
			c-0.64,0.13-1.269,0.32-1.87,0.57c-0.611,0.25-1.19,0.56-1.73,0.92c-0.551,0.36-1.061,0.78-1.521,1.24
			c-0.46,0.46-0.88,0.97-1.24,1.52c-0.37,0.54-0.67,1.12-0.92,1.73c-0.25,0.6-0.45,1.23-0.58,1.87c-0.129,0.64-0.189,1.3-0.189,1.95
			c0,0.65,0.059,1.31,0.189,1.96c0.13,0.63,0.33,1.26,0.58,1.87c0.25,0.6,0.55,1.18,0.92,1.72c0.36,0.55,0.78,1.06,1.24,1.52
			c0.46,0.46,0.97,0.88,1.521,1.25c0.54,0.36,1.12,0.67,1.73,0.92c0.6,0.25,1.23,0.44,1.87,0.57c0.639,0.13,1.3,0.19,1.95,0.19
			c0.649,0,1.31-0.06,1.95-0.19s1.269-0.32,1.869-0.57c0.61-0.25,1.19-0.56,1.73-0.92c0.55-0.37,1.06-0.79,1.52-1.25
			c0.461-0.46,0.881-0.97,1.24-1.52c0.36-0.54,0.67-1.12,0.92-1.72c0.25-0.61,0.44-1.24,0.57-1.87c0.13-0.65,0.2-1.31,0.2-1.96
			C78.999,349.73,78.929,349.07,78.799,348.43z"/>
	</g>
</g>
<g>
	<g>
		<path d="M506.429,151.219c-0.128-0.143-0.26-0.284-0.397-0.421l-41.353-41.346c-3.843-3.842-8.949-5.958-14.379-5.958H202.101
			c-29.202,0-56.98,9.262-80.332,26.786c-20.569,15.436-36.501,36.812-45.425,60.768H57.004c-15.018,0-27.725,10.085-31.706,23.838
			C10.822,218.236,0,231.236,0,246.715v197.518c0,21.78,17.72,39.5,39.5,39.5c21.78,0,39.5-17.72,39.5-39.5v-59.828
			c0-5.523-4.478-10-10-10s-10,4.477-10,10v59.828c0,10.753-8.748,19.5-19.5,19.5s-19.5-8.747-19.5-19.5V246.715
			c0-4.616,2.482-8.663,6.181-10.877c4.756,12.391,16.779,21.21,30.823,21.21H59v56.333c0,5.523,4.478,10,10,10s10-4.477,10-10
			v-22.807c10.554,24.362,28.259,45.512,51.114,60.108c0.059,0.038,0.119,0.075,0.179,0.112
			c23.822,37.391,65.651,62.243,113.178,62.243c71.476,0,130.07-56.209,133.896-126.748l116.117-37.433
			c10.363-0.925,18.516-9.654,18.516-20.25v-63.412C512,159.788,509.88,154.867,506.429,151.219z M383.683,123.494l15.493,21.354
			H256.773l-15.493-21.354H383.683z M79,237.048v-13c0-5.523-4.478-10-10-10s-10,4.477-10,10v13h-1.996c-7.168,0-13-5.831-13-13
			c0-7.168,5.832-13,13-13h39.014l-10.175,26H79z M89.681,257.048h2.988c4.116,0,7.813-2.522,9.313-6.355l18.002-46
			c1.204-3.078,0.811-6.552-1.053-9.282c-1.863-2.73-4.955-4.363-8.26-4.363H97.949c18.195-40.371,59.231-67.554,104.152-67.554
			h14.469l15.822,21.808c-68.777,5.652-123.016,63.431-123.016,133.642c0,10.034,1.108,19.815,3.208,29.226
			C100.909,293.345,92.944,275.756,89.681,257.048z M408.786,255.148l-44.288,14.277c-4.131,1.331-6.932,5.177-6.932,9.518
			c0,62.912-51.183,114.095-114.095,114.095c-62.912,0-114.096-51.182-114.096-114.095s51.183-114.095,114.096-114.095h165.315
			V255.148z M408.391,123.494h41.907c0.089,0,0.174,0.036,0.239,0.102l21.256,21.252h-47.909L408.391,123.494z M492,228.607
			c0,0.186-0.148,0.331-0.339,0.331c-1.042,0-2.077,0.163-3.068,0.482l-59.806,19.28v-83.852h62.874c0.089,0,0.17,0.036,0.231,0.094
			c0.004,0.003,0.007,0.007,0.011,0.011c0.06,0.063,0.097,0.148,0.097,0.242V228.607z"/>
	</g>
</g>
<g>
	<g>
		<path d="M307.78,28.266c-5.522,0-10,4.477-10,10v18.6c0,5.523,4.478,10,10,10c5.523,0,10-4.477,10-10v-18.6
			C317.78,32.743,313.303,28.266,307.78,28.266z"/>
	</g>
</g>
<g>
	<g>
		<path d="M276.226,65.795l-13.152-13.152c-3.907-3.906-10.237-3.905-14.143,0c-3.905,3.905-3.905,10.237,0,14.142l13.152,13.152
			c1.953,1.953,4.511,2.929,7.071,2.929c2.56,0,5.119-0.977,7.072-2.929C280.131,76.032,280.131,69.7,276.226,65.795z"/>
	</g>
</g>
<g>
	<g>
		<path d="M366.629,52.643c-3.906-3.906-10.236-3.905-14.142,0l-13.151,13.152c-3.905,3.905-3.905,10.237,0,14.142
			c1.953,1.953,4.511,2.929,7.071,2.929c2.56,0,5.118-0.977,7.071-2.929l13.151-13.152C370.534,62.88,370.534,56.548,366.629,52.643
			z"/>
	</g>
</g>
<g>
</g>
<g>
</g>
<g>
</g>
<g>
</g>
<g>
</g>
<g>
</g>
<g>
</g>
<g>
</g>
<g>
</g>
<g>
</g>
<g>
</g>
<g>
</g>
<g>
</g>
<g>
</g>
<g>
</g>
</svg>
